# xmcd CD database file
#
# Track frame offsets:
#	150
#	17822
#	36930
#	59625
#	87687
#	118122
#	133970
#	148342
#	162697
#	175160
#	185665
#	199657
#
# Disc length: 2844 seconds
#
# Revision: 0
# Processed by: cddbd v1.4PL0 Copyright (c) Steve Scherf et al.
# Submitted via: CDex 1.50beta9
#
DISCID=c30b1a0c
DTITLE=Louis Armstrong - When the saints go marchin`in
DYEAR=1997
DGENRE=Jazz
TTITLE0=Mahogany Hall Stomp
TTITLE1=Black And Blue
TTITLE2=Royal Garden Blues
TTITLE3=Muskrat Ramble
TTITLE4=On The Sunny Side Of The Street
TTITLE5=Hight Society
TTITLE6=Down By The Riverside
TTITLE7=Swing Low Sweet Chariot
TTITLE8=When The Saints Go Marching In
TTITLE9=What A Wonderful World
TTITLE10=Georgia On My Mind
TTITLE11=Cèst Si Bon
EXTD=YEAR: 1997
EXTT0=
EXTT1=
EXTT2=
EXTT3=
EXTT4=
EXTT5=
EXTT6=
EXTT7=
EXTT8=
EXTT9=
EXTT10=
EXTT11=
PLAYORDER=
